<?xml version="1.0" standalone="no"?>
<!DOCTYPE svg PUBLIC "-//W3C//DTD SVG 20010904//EN"
 "http://www.w3.org/TR/2001/REC-SVG-20010904/DTD/svg10.dtd">
<svg version="1.0" xmlns="http://www.w3.org/2000/svg"
 width="127.000000pt" height="137.000000pt" viewBox="0 0 127.000000 137.000000"
 preserveAspectRatio="xMidYMid meet">

<g transform="translate(0.000000,137.000000) scale(0.100000,-0.100000)"
fill="#000000" stroke="none">
<path d="M585 1285 c-36 -35 -35 -97 1 -130 15 -14 31 -25 35 -25 5 0 9 -20 9
-44 0 -43 0 -43 -41 -50 -57 -9 -127 -47 -173 -95 l-39 -40 -35 18 c-29 15
-35 23 -37 56 -4 77 -93 112 -152 61 -39 -34 -39 -98 0 -132 32 -27 83 -32
112 -10 17 12 24 11 56 -7 l37 -21 -15 -41 c-19 -52 -18 -159 0 -211 l15 -41
-36 -21 c-34 -19 -39 -19 -66 -5 -42 22 -92 10 -116 -30 -27 -44 -25 -71 8
-108 54 -60 150 -29 157 52 2 25 11 39 36 56 l34 23 31 -34 c45 -49 101 -83
164 -99 53 -14 55 -15 58 -52 3 -33 -1 -41 -32 -67 -30 -24 -36 -36 -36 -67 0
-56 31 -91 80 -91 52 0 68 8 85 41 24 46 19 78 -20 115 -29 27 -35 40 -35 73
0 38 2 41 28 41 44 0 144 53 184 98 l38 42 35 -21 c27 -17 35 -27 35 -51 0
-42 17 -68 56 -84 95 -40 172 84 93 150 -34 29 -74 33 -106 11 -20 -14 -25
-13 -57 6 -20 11 -36 22 -36 22 0 1 7 24 15 51 19 63 19 129 0 192 -8 27 -15
50 -15 51 0 2 17 11 38 22 33 17 40 17 57 5 24 -18 59 -18 94 1 33 16 41 33
41 81 0 49 -37 84 -87 84 -56 -1 -93 -38 -93 -94 0 -17 -10 -31 -33 -45 l-34
-21 -50 49 c-49 47 -137 91 -183 91 -17 0 -20 7 -20 41 0 33 6 46 35 73 47 45
46 105 -4 143 -28 22 -89 16 -116 -12z m109 -38 c7 -11 7 -25 0 -44 -7 -22
-17 -29 -41 -31 -60 -6 -80 67 -26 97 20 11 53 0 67 -22z m-430 -260 c8 -21 6
-31 -9 -47 -46 -51 -125 8 -82 62 27 35 76 27 91 -15z m865 5 c16 -29 -9 -66
-45 -70 -37 -4 -57 17 -52 55 6 52 72 62 97 15z m-369 -13 c185 -83 228 -322
84 -464 -142 -139 -373 -92 -458 94 -28 62 -27 159 1 222 26 58 91 125 146
150 58 26 167 25 227 -2z m-504 -484 c19 -30 11 -62 -21 -77 -49 -22 -96 42
-60 82 25 27 61 25 81 -5z m870 -4 c15 -29 1 -68 -28 -77 -27 -8 -68 22 -68
51 0 54 73 74 96 26z m-442 -237 c24 -23 20 -61 -9 -80 -31 -20 -63 -10 -76
23 -20 53 45 97 85 57z"/>
<path d="M613 930 c-33 -13 -55 -55 -55 -103 1 -34 7 -47 32 -69 41 -38 83
-37 121 1 23 23 29 38 29 71 0 52 -13 76 -50 95 -33 17 -45 18 -77 5z m69 -47
c22 -20 24 -76 2 -97 -41 -41 -102 3 -89 64 10 47 53 64 87 33z"/>
<path d="M531 696 c-32 -18 -50 -53 -51 -98 0 -31 3 -38 20 -38 17 0 20 7 20
38 0 37 22 72 45 72 5 0 26 -16 46 -36 l37 -36 33 36 c17 20 38 36 46 36 25 0
53 -39 53 -75 0 -29 4 -35 21 -35 20 0 21 4 16 42 -7 55 -36 91 -82 103 -35 8
-39 7 -61 -20 l-23 -29 -29 27 c-31 30 -55 33 -91 13z"/>
<path d="M423 1112 c-68 -40 -80 -50 -72 -64 9 -15 18 -12 87 28 92 55 86 49
75 68 -7 12 -21 7 -90 -32z"/>
<path d="M787 1153 c-17 -17 -1 -34 70 -76 55 -33 80 -43 85 -34 13 20 10 24
-49 57 -32 18 -67 39 -79 46 -11 8 -24 11 -27 7z"/>
<path d="M200 715 c0 -78 3 -95 15 -95 12 0 15 17 15 95 0 78 -3 95 -15 95
-12 0 -15 -17 -15 -95z"/>
<path d="M1060 715 c0 -88 1 -95 20 -95 19 0 20 7 20 95 0 88 -1 95 -20 95
-19 0 -20 -7 -20 -95z"/>
<path d="M860 363 c-49 -28 -75 -49 -75 -60 0 -10 6 -17 14 -15 22 5 151 82
151 90 -1 28 -21 25 -90 -15z"/>
<path d="M347 387 c-8 -20 153 -113 164 -95 13 20 13 21 -66 66 -81 46 -90 49
-98 29z"/>
</g>
</svg>
