<svg height="496pt" viewBox="0 0 496 496.002" width="496pt" xmlns="http://www.w3.org/2000/svg"><path d="m152 496.003906v-80h-88v-104h-56l56-120c0-57.441406 46.5625-104 104-104h40c57.441406 0 104 46.558594 104 104v104l-48 96v104" fill="#ceb2aa"/><path d="m288 296.003906v-104c0-57.441406-46.558594-104-104-104h-16c-57.4375 0-104 46.558594-104 104l-56 120h56v104h88v80h88v-104zm0 0" fill="#e5c7bd"/><g fill="#7ec95f"><path d="m272 24.003906c0 8.835938-7.164062 16-16 16s-16-7.164062-16-16c0-8.839844 7.164062-16 16-16s16 7.160156 16 16zm0 0"/><path d="m40 112.003906c0 8.835938-7.164062 16-16 16s-16-7.164062-16-16c0-8.839844 7.164062-16 16-16s16 7.160156 16 16zm0 0"/><path d="m120 40.003906c0 8.835938-7.164062 16-16 16s-16-7.164062-16-16c0-8.839844 7.164062-16 16-16s16 7.160156 16 16zm0 0"/><path d="m208 152.003906c0 8.835938-7.164062 16-16 16s-16-7.164062-16-16c0-8.839844 7.164062-16 16-16s16 7.160156 16 16zm0 0"/><path d="m160 264.003906c0 17.671875-14.324219 32-32 32-17.671875 0-32-14.328125-32-32 0-17.675781 14.328125-32 32-32 17.675781 0 32 14.324219 32 32zm0 0"/></g><path d="m144 264.003906c0-17.050781-10.742188-30.875-24-30.875-13.253906 0-24 13.824219-24 30.875 0 17.046875 10.746094 30.871094 24 30.871094 13.257812 0 24-13.824219 24-30.871094zm0 0" fill="#afe26c"/><path d="m200 200.003906h136c17.671875 0 32-14.328125 32-32v-72h-56l88-88 88 88h-56v88c0 44.183594-35.816406 80-80 80h-152" fill="#f09490"/><path d="m200 296.003906h136c17.671875 0 32 14.324219 32 32v72h-56l88 88 88-88h-56v-88c0-44.1875-35.816406-80-80-80h-152" fill="#ed6863"/><path d="m160 496.003906h-16v-72h-80c-4.414062 0-8-3.585937-8-8v-96h-48c-2.734375 0-5.277344-1.394531-6.742188-3.707031-1.472656-2.304687-1.664062-5.199219-.503906-7.679687l55.261719-118.421876c.96875-60.929687 50.832031-110.191406 111.984375-110.191406h40c61.761719 0 112 50.238282 112 112v8h-16v-8c0-52.9375-43.0625-96-96-96h-40c-52.933594 0-96 43.0625-96 96 0 1.167969-.253906 2.324219-.75 3.382813l-50.6875 108.617187h43.4375c4.417969 0 8 3.582032 8 8v96h80c4.417969 0 8 3.582032 8 8zm0 0"/><path d="m272 496.003906h-16v-104c0-1.242187.289062-2.472656.839844-3.578125l48-96 14.3125 7.160157-47.152344 94.304687zm0 0"/><path d="m400 496.003906c-2.046875 0-4.09375-.785156-5.65625-2.347656l-88-88c-2.285156-2.285156-2.972656-5.726562-1.734375-8.71875 1.238281-2.984375 4.160156-4.933594 7.390625-4.933594h48v-64c0-13.234375-10.765625-24-24-24h-136v-16h136c22.058594 0 40 17.941406 40 40v72c0 4.414063-3.582031 8-8 8h-36.6875l68.6875 68.6875 68.6875-68.6875h-36.6875c-4.414062 0-8-3.585937-8-8v-88c0-39.699218-32.304688-72-72-72h-152v-16h152c48.519531 0 88 39.476563 88 88v80h48c3.234375 0 6.152344 1.949219 7.394531 4.933594 1.238281 2.992188.550781 6.433594-1.738281 8.71875l-88 88c-1.558594 1.5625-3.605469 2.347656-5.65625 2.347656zm0 0"/><path d="m404.808594 254.402344-9.605469-12.800782c18.300781-13.742187 28.796875-34.742187 28.796875-57.597656v-88c0-4.417968 3.585938-8 8-8h36.6875l-68.6875-68.691406-68.6875 68.691406h36.6875c4.417969 0 8 3.582032 8 8v72c0 22.054688-17.941406 40-40 40h-136v-16h136c13.234375 0 24-10.769531 24-24v-64h-48c-3.230469 0-6.152344-1.953125-7.390625-4.9375-1.238281-2.992187-.550781-6.433594 1.734375-8.71875l88-88c3.128906-3.128906 8.183594-3.128906 11.3125 0l88 88c2.289062 2.285156 2.976562 5.726563 1.738281 8.71875-1.242187 2.984375-4.160156 4.9375-7.394531 4.9375h-48v80c0 27.941406-12.832031 53.597656-35.191406 70.398438zm0 0"/><path d="m128 304.003906c-22.054688 0-40-17.945312-40-40 0-22.058594 17.945312-40 40-40 22.058594 0 40 17.941406 40 40 0 22.054688-17.941406 40-40 40zm0-64c-13.230469 0-24 10.765625-24 24 0 13.230469 10.769531 24 24 24 13.234375 0 24-10.769531 24-24 0-13.234375-10.765625-24-24-24zm0 0"/><path d="m192 176.003906c-13.230469 0-24-10.769531-24-24 0-13.234375 10.769531-24 24-24 13.234375 0 24 10.765625 24 24 0 13.230469-10.765625 24-24 24zm0-32c-4.40625 0-8 3.589844-8 8 0 4.40625 3.59375 8 8 8 4.410156 0 8-3.59375 8-8 0-4.410156-3.589844-8-8-8zm0 0"/><path d="m256 48.003906c-13.230469 0-24-10.769531-24-24 0-13.234375 10.769531-23.99999975 24-23.99999975 13.234375 0 24 10.76562475 24 23.99999975 0 13.230469-10.765625 24-24 24zm0-32c-4.40625 0-8 3.589844-8 8 0 4.40625 3.59375 8 8 8 4.410156 0 8-3.59375 8-8 0-4.410156-3.589844-8-8-8zm0 0"/><path d="m24 136.003906c-13.230469 0-24-10.769531-24-24 0-13.234375 10.769531-24 24-24 13.234375 0 24 10.765625 24 24 0 13.230469-10.765625 24-24 24zm0-32c-4.40625 0-8 3.589844-8 8 0 4.40625 3.59375 8 8 8 4.410156 0 8-3.59375 8-8 0-4.410156-3.589844-8-8-8zm0 0"/><path d="m104 64.003906c-13.230469 0-24-10.769531-24-24 0-13.234375 10.769531-24 24-24 13.234375 0 24 10.765625 24 24 0 13.230469-10.765625 24-24 24zm0-32c-4.40625 0-8 3.589844-8 8 0 4.40625 3.59375 8 8 8 4.410156 0 8-3.59375 8-8 0-4.410156-3.589844-8-8-8zm0 0"/><path d="m136.996094 236.128906 40.023437-71.992187 13.984375 7.777343-40.023437 71.988282zm0 0"/><path d="m25.65625 132.875 12.679688-9.753906 80 103.992187-12.683594 9.757813zm0 0"/><path d="m26.792969 89.929688 55.996093-48.003907 10.414063 12.148438-56 48.003906zm0 0"/><path d="m37.75 119.675781 4.515625-15.351562 136.003906 40.003906-4.515625 15.351563zm0 0"/><path d="m118.945312 32.085938 120-16.019532 2.113282 15.859375-119.996094 16.019531zm0 0"/><path d="m193.09375 131.960938 56-96 13.820312 8.0625-56 96zm0 0"/><path d="m106.054688 61.347656 11.894531-10.703125 72.003906 80.003907-11.890625 10.703124zm0 0"/></svg>