<?xml version="1.0"?>
<svg xmlns="http://www.w3.org/2000/svg" xmlns:xlink="http://www.w3.org/1999/xlink" xmlns:svgjs="http://svgjs.com/svgjs" version="1.1" width="512" height="512" x="0" y="0" viewBox="0 0 64 64" style="enable-background:new 0 0 512 512" xml:space="preserve" class=""><g><path xmlns="http://www.w3.org/2000/svg" d="m15 43a1 1 0 0 1 1 1h2a3 3 0 0 0 -2-2.816v-2.184h-2v2.184a2.993 2.993 0 0 0 1 5.816 1 1 0 1 1 -1 1h-2a3 3 0 0 0 2 2.816v2.184h2v-2.184a2.993 2.993 0 0 0 -1-5.816 1 1 0 0 1 0-2z" fill="#2b4970" data-original="#000000" style=""/><path xmlns="http://www.w3.org/2000/svg" d="m49 43a1 1 0 0 1 1 1h2a3 3 0 0 0 -2-2.816v-2.184h-2v2.184a2.993 2.993 0 0 0 1 5.816 1 1 0 1 1 -1 1h-2a3 3 0 0 0 2 2.816v2.184h2v-2.184a2.993 2.993 0 0 0 -1-5.816 1 1 0 0 1 0-2z" fill="#2b4970" data-original="#000000" style=""/><path xmlns="http://www.w3.org/2000/svg" d="m46.06 9.363-.18-.717a3.492 3.492 0 0 0 -6.88.846v.871a8.468 8.468 0 0 1 7.06-1z" fill="#2b4970" data-original="#000000" style=""/><path xmlns="http://www.w3.org/2000/svg" d="m25 10.363v-.871a3.492 3.492 0 0 0 -6.88-.846l-.18.717a8.468 8.468 0 0 1 7.06 1z" fill="#2b4970" data-original="#000000" style=""/><path xmlns="http://www.w3.org/2000/svg" d="m49 32a13.917 13.917 0 0 1 7.725 2.335l-6.844-18.951a6.638 6.638 0 0 0 -12.881 2.254v21.188a13.991 13.991 0 0 1 12-6.826zm-9-12 .312-.156a11.148 11.148 0 0 1 7.688-.844l3 9a30.811 30.811 0 0 0 -9.743 1.581l-1.257.419z" fill="#2b4970" data-original="#000000" style=""/><path xmlns="http://www.w3.org/2000/svg" d="m15 34a12 12 0 1 0 12 12 12.013 12.013 0 0 0 -12-12zm0 22a10 10 0 1 1 10-10 10 10 0 0 1 -10 10z" fill="#2b4970" data-original="#000000" style=""/><path xmlns="http://www.w3.org/2000/svg" d="m29 39h6v2h-6z" fill="#2b4970" data-original="#000000" style=""/><path xmlns="http://www.w3.org/2000/svg" d="m29 25h6v12h-6z" fill="#2b4970" data-original="#000000" style=""/><path xmlns="http://www.w3.org/2000/svg" d="m49 34a12 12 0 1 0 12 12 12.013 12.013 0 0 0 -12-12zm0 22a10 10 0 1 1 10-10 10 10 0 0 1 -10 10z" fill="#2b4970" data-original="#000000" style=""/><path xmlns="http://www.w3.org/2000/svg" d="m20.362 11a6.655 6.655 0 0 0 -6.243 4.383l-6.844 18.952a13.956 13.956 0 0 1 19.725 4.491v-21.188a6.646 6.646 0 0 0 -6.638-6.638zm3.638 19-1.257-.419a30.811 30.811 0 0 0 -9.743-1.581l3-9a11.148 11.148 0 0 1 7.688.844l.312.156z" fill="#2b4970" data-original="#000000" style=""/></g></svg>
