<?xml version="1.0" standalone="no"?>
<!DOCTYPE svg PUBLIC "-//W3C//DTD SVG 20010904//EN"
 "http://www.w3.org/TR/2001/REC-SVG-20010904/DTD/svg10.dtd">
<svg version="1.0" xmlns="http://www.w3.org/2000/svg"
 width="124.000000pt" height="144.000000pt" viewBox="0 0 124.000000 144.000000"
 preserveAspectRatio="xMidYMid meet">

<g transform="translate(0.000000,144.000000) scale(0.100000,-0.100000)"
fill="#000000" stroke="none">
<path d="M119 1261 l-29 -29 0 -227 0 -227 29 -29 c21 -20 39 -29 63 -29 29 0
40 -9 96 -80 48 -61 68 -80 87 -80 33 0 45 27 45 99 0 54 2 61 20 61 13 0 20
7 20 20 0 17 -7 20 -45 20 l-44 0 -3 -75 -3 -76 -58 76 c-51 66 -62 75 -90 75
-18 0 -43 7 -55 16 -22 15 -22 19 -22 228 0 194 2 214 18 229 17 15 62 17 441
17 272 0 429 -4 442 -10 18 -10 19 -23 19 -235 0 -212 -1 -225 -19 -235 -11
-5 -63 -10 -115 -10 -89 0 -96 -1 -96 -20 0 -19 7 -20 99 -20 178 0 181 5 181
285 0 208 -8 252 -48 274 -14 7 -165 11 -462 11 l-442 0 -29 -29z"/>
<path d="M430 1020 c0 -16 7 -20 35 -20 28 0 35 4 35 20 0 16 -7 20 -35 20
-28 0 -35 -4 -35 -20z"/>
<path d="M550 1020 c0 -16 7 -20 30 -20 23 0 30 4 30 20 0 16 -7 20 -30 20
-23 0 -30 -4 -30 -20z"/>
<path d="M660 1020 c0 -16 7 -20 35 -20 28 0 35 4 35 20 0 16 -7 20 -35 20
-28 0 -35 -4 -35 -20z"/>
<path d="M581 863 c-52 -27 -74 -64 -78 -130 -5 -70 16 -117 66 -150 62 -42
155 -18 188 47 17 34 16 145 -1 179 -31 59 -115 85 -175 54z m124 -58 c21 -20
25 -34 25 -84 0 -72 -25 -108 -81 -117 -46 -8 -94 30 -103 81 -9 46 9 111 37
130 34 24 94 19 122 -10z"/>
<path d="M529 515 c-63 -17 -126 -53 -146 -84 -12 -18 -18 -54 -21 -113 -4
-78 -7 -88 -23 -88 -12 0 -19 -7 -19 -20 0 -20 7 -20 320 -20 309 0 320 1 320
19 0 13 -8 21 -22 23 -22 3 -23 9 -28 96 -5 92 -5 94 -42 127 -70 64 -225 92
-339 60z m248 -55 c84 -37 93 -51 93 -147 l0 -83 -35 0 -35 0 0 50 c0 43 -3
50 -19 50 -17 0 -20 -8 -23 -47 l-3 -48 -115 0 -115 0 -3 48 c-3 38 -7 47 -22
47 -15 0 -19 -9 -22 -47 -3 -46 -4 -48 -35 -51 l-33 -3 0 85 0 85 35 28 c80
64 228 79 332 33z"/>
<path d="M130 210 c0 -15 7 -20 25 -20 18 0 25 5 25 20 0 15 -7 20 -25 20 -18
0 -25 -5 -25 -20z"/>
<path d="M230 210 c0 -13 7 -20 20 -20 13 0 20 7 20 20 0 13 -7 20 -20 20 -13
0 -20 -7 -20 -20z"/>
<path d="M1010 210 c0 -13 7 -20 20 -20 13 0 20 7 20 20 0 13 -7 20 -20 20
-13 0 -20 -7 -20 -20z"/>
</g>
</svg>
