<?xml version="1.0" standalone="no"?>
<!DOCTYPE svg PUBLIC "-//W3C//DTD SVG 20010904//EN"
 "http://www.w3.org/TR/2001/REC-SVG-20010904/DTD/svg10.dtd">
<svg version="1.0" xmlns="http://www.w3.org/2000/svg"
 width="127.000000pt" height="130.000000pt" viewBox="0 0 127.000000 130.000000"
 preserveAspectRatio="xMidYMid meet">

<g transform="translate(0.000000,130.000000) scale(0.100000,-0.100000)"
fill="#000000" stroke="none">
<path d="M555 1164 c-48 -10 -135 -38 -135 -43 0 -3 4 -12 8 -19 7 -10 17 -9
53 3 24 9 74 19 112 22 56 5 67 9 67 24 0 16 -7 19 -42 18 -24 -1 -52 -3 -63
-5z"/>
<path d="M730 1141 c0 -24 126 -75 135 -54 3 8 5 16 5 18 0 8 -35 23 -87 38
-50 15 -53 15 -53 -2z"/>
<path d="M306 1053 c-90 -70 -163 -192 -181 -299 -14 -85 -13 -84 -50 -84 -18
0 -37 -4 -40 -10 -8 -13 145 -250 162 -250 14 0 163 224 163 246 0 10 -12 14
-40 14 -46 0 -47 3 -24 80 29 98 88 168 184 217 49 25 65 28 150 28 111 0 158
-18 241 -93 35 -31 53 -42 60 -35 17 17 -17 58 -83 103 -78 52 -124 65 -228
65 -74 -1 -94 -5 -150 -31 -116 -54 -195 -157 -221 -286 -14 -69 -8 -88 27
-88 14 0 24 -4 22 -8 -9 -23 -93 -152 -99 -152 -3 0 -29 35 -58 78 l-51 77 28
5 c25 5 28 10 34 65 16 126 65 222 158 308 37 34 65 68 63 75 -7 18 -16 15
-67 -25z"/>
<path d="M914 1059 c-7 -12 53 -79 72 -79 31 0 25 25 -12 57 -43 36 -49 38
-60 22z"/>
<path d="M581 886 c-69 -38 -67 -162 4 -194 73 -33 145 15 145 98 0 84 -79
135 -149 96z m91 -43 c23 -20 24 -80 1 -105 -38 -42 -103 -10 -103 50 0 63 58
95 102 55z"/>
<path d="M971 774 c-42 -66 -71 -121 -67 -129 3 -10 19 -15 42 -15 l36 0 -7
-37 c-34 -190 -228 -323 -415 -283 -68 14 -168 73 -195 114 -14 21 -20 24 -37
15 -19 -10 -18 -13 23 -55 220 -225 598 -109 661 202 13 65 7 84 -28 84 -32 0
-31 4 31 100 l47 74 54 -85 54 -84 -30 -3 c-26 -3 -30 -7 -30 -36 0 -46 -27
-143 -56 -203 -25 -52 -106 -144 -154 -176 -22 -15 -23 -18 -9 -32 14 -14 23
-9 87 50 85 79 140 179 157 284 11 66 11 66 45 69 19 2 39 7 44 12 13 13 -142
250 -162 250 -10 -1 -46 -46 -91 -116z"/>
<path d="M479 621 c-26 -26 -29 -36 -29 -90 0 -45 4 -61 14 -61 9 0 15 17 18
50 5 52 29 90 57 90 8 0 33 -17 54 -37 l39 -38 32 38 c18 20 42 37 53 37 32 0
55 -35 61 -90 3 -33 9 -50 18 -50 19 0 19 92 0 129 -29 56 -98 66 -141 21
l-29 -30 -24 30 c-32 41 -82 42 -123 1z"/>
<path d="M261 317 c-8 -10 -1 -23 30 -53 33 -32 41 -36 49 -24 14 21 14 22
-29 57 -31 26 -41 30 -50 20z"/>
<path d="M395 222 c-16 -16 1 -33 50 -51 68 -26 85 -26 85 -3 0 12 -18 23 -65
38 -36 11 -67 18 -70 16z"/>
<path d="M765 195 c-23 -7 -69 -16 -103 -20 -43 -5 -62 -11 -62 -21 0 -20 101
-19 171 2 67 20 69 21 62 39 -6 17 -14 17 -68 0z"/>
</g>
</svg>
