<!-- SOME SVG EXAMPLES PLEASE USE WHICHEVER YOU WANT  -->

<!-- <svg width="2189" height="185" viewBox="0 0 2189 185" fill="none" xmlns="http://www.w3.org/2000/svg">
<path d="M1026.5 118.037C532.9 237.637 136.5 167.871 0 118.037V0.5H2188.5V118.037C2006.83 68.204 1520.1 -1.56264 1026.5 118.037Z" fill="#f6f8fa"/>
</svg> -->

<!-- <svg xmlns="http://www.w3.org/2000/svg" viewBox="0 0 1440 320">
<path fill="#f6f8fa" fill-opacity="1" d="M0,160L80,149.3C160,139,320,117,480,133.3C640,149,800,203,960,208C1120,213,1280,171,1360,149.3L1440,128L1440,0L1360,0C1280,0,1120,0,960,0C800,0,640,0,480,0C320,0,160,0,80,0L0,0Z">
</path></svg> -->

<!-- <svg xmlns="http://www.w3.org/2000/svg" viewBox="0 0 1440 320">
<path fill="#f6f8fa" fill-opacity="1" d="M0,288L80,282.7C160,277,320,267,480,245.3C640,224,800,192,960,176C1120,160,1280,160,1360,160L1440,160L1440,0L1360,0C1280,0,1120,0,960,0C800,0,640,0,480,0C320,0,160,0,80,0L0,0Z">
</path></svg> -->

<!-- <svg xmlns="http://www.w3.org/2000/svg" viewBox="0 0 1440 320"><path fill="#f6f8fa" fill-opacity="1" d="M0,64L80,74.7C160,85,320,107,480,106.7C640,107,800,85,960,74.7C1120,64,1280,64,1360,64L1440,64L1440,0L1360,0C1280,0,1120,0,960,0C800,0,640,0,480,0C320,0,160,0,80,0L0,0Z"></path></svg> -->


<!-- <svg xmlns="http://www.w3.org/2000/svg" viewBox="0 0 1440 320"><path fill="#f6f8fa" fill-opacity="1" d="M0,192L80,192C160,192,320,192,480,165.3C640,139,800,85,960,58.7C1120,32,1280,32,1360,32L1440,32L1440,0L1360,0C1280,0,1120,0,960,0C800,0,640,0,480,0C320,0,160,0,80,0L0,0Z"></path></svg> -->



<!-- <svg xmlns="http://www.w3.org/2000/svg" viewBox="0 0 1440 320"><path fill="#f6f8fa" fill-opacity="1" d="M0,160L80,176C160,192,320,224,480,224C640,224,800,192,960,186.7C1120,181,1280,203,1360,213.3L1440,224L1440,0L1360,0C1280,0,1120,0,960,0C800,0,640,0,480,0C320,0,160,0,80,0L0,0Z"></path></svg> -->


<svg xmlns="http://www.w3.org/2000/svg" viewBox="0 0 1440 320"><path fill="#f6f8fa" fill-opacity="1" d="M0,192L80,197.3C160,203,320,213,480,197.3C640,181,800,139,960,128C1120,117,1280,139,1360,149.3L1440,160L1440,0L1360,0C1280,0,1120,0,960,0C800,0,640,0,480,0C320,0,160,0,80,0L0,0Z"></path></svg>
