<svg width="1280" height="123" xmlns="http://www.w3.org/2000/svg">

 <g>
  <title>background</title>
  <rect fill="none" id="canvas_background" height="125" width="1282" y="-1" x="-1"/>
 </g>
 <g>
  <title>Layer 1</title>
  <g id="Layer_1">
   <g id="svg_1">
    <path id="svg_2" d="m1280,0l0,78.57001l-71.10999,-9.51001c-71.10901,-9.15997 -213.33002,-28.71002 -355.56,-18.92999c-142.22003,9.77002 -284.44,47.10999 -426.66,61.59998c-142.23001,13.95001 -284.45003,5.06 -355.56001,0l-71.11,-4.71997l0,-107.01001l1280,0z" fill="#F6F8FA"/>
   </g>
   <g id="svg_3">
    <path id="svg_4" d="m1280,0l0,78.57001l-71.10999,-9.51001c-71.10901,-9.15997 -213.33002,-28.71002 -355.56,-18.92999c-142.22003,9.77002 -284.44,47.10999 -426.66,61.59998c-142.23001,13.95001 -284.45003,5.06 -355.56001,0l-71.11,-4.71997l0,-107.01001l1280,0z" fill="#F6F8FA"/>
   </g>
  </g>
 </g>
</svg>