<?xml version="1.0" encoding="UTF-8" standalone="no"?>
<svg
   xmlns:dc="http://purl.org/dc/elements/1.1/"
   xmlns:cc="http://creativecommons.org/ns#"
   xmlns:rdf="http://www.w3.org/1999/02/22-rdf-syntax-ns#"
   xmlns:svg="http://www.w3.org/2000/svg"
   xmlns="http://www.w3.org/2000/svg"
   viewBox="0 0 2560 1440"
   height="1440"
   width="2560"
   xml:space="preserve"
   id="svg2"
   version="1.1"><metadata
     id="metadata8"><rdf:RDF><cc:Work
         rdf:about=""><dc:format>image/svg+xml</dc:format><dc:type
           rdf:resource="http://purl.org/dc/dcmitype/StillImage" /></cc:Work></rdf:RDF></metadata><defs
     id="defs6"><clipPath
       id="clipPath18"
       clipPathUnits="userSpaceOnUse"><path
         id="path16"
         d="M 0,1080 H 1920 V 0 H 0 Z" /></clipPath></defs><g
     transform="matrix(1.3333333,0,0,-1.3333333,0,1440)"
     id="g10"><g
       id="g12"><g
         clip-path="url(#clipPath18)"
         id="g14"><path
           id="path20"
           style="fill:#2b4970;fill-opacity:1;fill-rule:nonzero;stroke:none"
           d="m 737.325,661.004 h 15.391 v -62.608 h -15.391 z m -0.896,22.414 c 0,2.391 0.945,4.383 2.838,5.978 1.892,1.591 3.935,2.39 6.127,2.39 2.29,0 4.333,-0.799 6.127,-2.39 1.792,-1.595 2.689,-3.587 2.689,-5.978 0,-2.391 -0.897,-4.359 -2.689,-5.902 -1.794,-1.546 -3.837,-2.316 -6.127,-2.316 -2.192,0 -4.235,0.77 -6.127,2.316 -1.893,1.543 -2.838,3.511 -2.838,5.902" /><g
           transform="translate(786.9326,661.0039)"
           id="g22"><path
             id="path24"
             style="fill:#2b4970;fill-opacity:1;fill-rule:nonzero;stroke:none"
             d="m 0,0 1.345,-14.344 -0.597,1.942 C 2.839,-7.919 6.075,-4.31 10.46,-1.569 14.842,1.17 20.023,2.54 26,2.54 c 5.877,0 10.733,-1.743 14.569,-5.229 3.834,-3.488 5.802,-8.02 5.903,-13.599 v -46.32 H 31.08 v 40.941 c -0.1,3.187 -1.045,5.803 -2.838,7.846 -1.793,2.04 -4.584,3.112 -8.368,3.213 -3.388,0 -6.477,-1.023 -9.265,-3.065 C 7.819,-15.715 5.627,-18.48 4.035,-21.965 2.44,-25.453 1.644,-29.488 1.644,-34.069 V -62.608 H -13.747 V 0 Z" /></g><g
           transform="translate(860,688.498)"
           id="g26"><path
             id="path28"
             style="fill:#2b4970;fill-opacity:1;fill-rule:nonzero;stroke:none"
             d="M 0,0 H 15.391 V -27.644 H 32.126 V -39.747 H 15.391 V -90.103 H 0 v 50.356 h -11.057 v 12.103 H 0 Z" /></g><g
           transform="translate(1003.9629,661.0039)"
           id="g30"><path
             id="path32"
             style="fill:#2b4970;fill-opacity:1;fill-rule:nonzero;stroke:none"
             d="m 0,0 1.495,-17.931 -0.747,2.391 c 1.692,3.785 4.083,7.023 7.172,9.713 3.087,2.689 6.299,4.755 9.639,6.2 C 20.895,1.817 23.708,2.54 26,2.54 L 25.254,-12.7 c -4.782,0.298 -8.942,-0.598 -12.478,-2.69 -3.537,-2.091 -6.3,-4.882 -8.293,-8.368 -1.994,-3.488 -2.988,-7.223 -2.988,-11.207 V -62.608 H -13.747 V 0 Z" /></g><g
           transform="translate(1058.2041,661.0039)"
           id="g34"><path
             id="path36"
             style="fill:#2b4970;fill-opacity:1;fill-rule:nonzero;stroke:none"
             d="m 0,0 1.346,-14.344 -0.6,1.942 c 2.092,4.483 5.33,8.092 9.713,10.833 C 14.841,1.17 20.024,2.54 26,2.54 c 5.878,0 10.732,-1.743 14.57,-5.229 3.832,-3.488 5.8,-8.02 5.901,-13.599 v -46.32 H 31.08 v 40.941 c -0.099,3.187 -1.046,5.803 -2.838,7.846 -1.793,2.04 -4.584,3.112 -8.367,3.213 -3.389,0 -6.478,-1.023 -9.267,-3.065 C 7.819,-15.715 5.627,-18.48 4.034,-21.965 2.44,-25.453 1.646,-29.488 1.646,-34.069 V -62.608 H -13.746 V 0 Z" /></g><g
           transform="translate(1128.1338,568.3613)"
           id="g38"><path
             id="path40"
             style="fill:#2b4970;fill-opacity:1;fill-rule:nonzero;stroke:none"
             d="M 0,0 41.392,92.643 H 55.438 L 15.094,0 Z M 15.84,29.586 -14.493,92.643 H 2.84 L 27.645,37.355 Z" /></g><g
           transform="translate(952.0122,655.4829)"
           id="g42"><path
             id="path44"
             style="fill:#ff8104;fill-opacity:1;fill-rule:nonzero;stroke:none"
             d="m 0,0 c 2.761,-2.131 4.946,-4.704 6.494,-7.647 l 0.264,-0.503 -37.027,-16.645 -0.124,0.669 c -0.191,1.035 -0.33,2.096 -0.412,3.152 -0.345,4.416 0.255,8.401 1.783,11.843 1.53,3.443 3.798,6.274 6.741,8.414 2.949,2.142 6.422,3.382 10.322,3.686 C -7.076,3.35 -3.051,2.351 0,0 m -29.841,8.738 c -5.327,-3.557 -9.483,-8.157 -12.353,-13.67 -2.865,-5.504 -4.062,-11.563 -3.559,-18.009 0.528,-6.778 2.481,-12.76 5.803,-17.783 3.313,-5.016 7.851,-8.847 13.488,-11.387 5.64,-2.545 12.363,-3.535 19.987,-2.941 3.85,0.301 7.787,1.273 11.7,2.888 3.752,1.55 7.256,3.513 10.424,5.838 l -7.784,10.638 c -2.115,-1.65 -4.383,-3.085 -6.747,-4.271 -2.567,-1.288 -5.349,-2.058 -8.271,-2.285 -4.11,-0.321 -7.946,0.374 -11.403,2.067 -3.042,1.489 -5.617,3.617 -7.656,6.326 l -0.407,0.541 0.62,0.27 50.069,21.819 c -2.714,8.806 -7.163,15.585 -13.231,20.154 -5.377,4.048 -11.816,6.091 -19.177,6.091 -1.071,0 -2.161,-0.043 -3.271,-0.13 -6.774,-0.528 -12.908,-2.6 -18.232,-6.156" /></g><g
           transform="translate(940.3203,672.4424)"
           id="g46"><path
             id="path48"
             style="fill:#ff8104;fill-opacity:1;fill-rule:nonzero;stroke:none"
             d="m 0,0 c 9.001,0.704 16.8,-1.374 23.174,-6.173 0.132,-0.099 0.252,-0.215 0.383,-0.316 V 2.062 H -18.06 V -5.909 C -12.741,-2.519 -6.675,-0.521 0,0" /></g><g
           transform="translate(980.0469,682.6685)"
           id="g50"><path
             id="path52"
             style="fill:#ff8104;fill-opacity:1;fill-rule:nonzero;stroke:none"
             d="m 0,0 -36.686,13.915 c -0.189,0.072 -0.397,0.073 -0.587,0.005 L -75.857,0.004 c -0.728,-0.262 -0.75,-1.284 -0.034,-1.578 l 26.106,-10.699 c 3.171,1.084 6.53,1.772 10.058,2.047 5.58,0.436 10.697,-0.199 15.299,-1.886 L 0.034,-1.568 C 0.732,-1.267 0.71,-0.27 0,0" /></g></g></g></g></svg>
